<?xml version="1.0" encoding="UTF-8"?>
<!-- Generator: Adobe Illustrator 17.0.0, SVG Export Plug-In . SVG Version: 6.00 Build 0)  -->
<svg width="1200" height="430" version="1.1" xmlns="http://www.w3.org/2000/svg">
 <title>NOAA logo mobile</title>
 <g transform="matrix(7.4138 0 0 7.4138 23.284 29.618)">
  <g id="NOAA_LOGO_VECTOR__copy_2_xA0_Image_1_">
   <path d="m5.409 11.067c.202-.295.409-.59.616-.874 4.553-6.183 11.884-10.193 20.152-10.193 7.735 0 14.647 3.508 19.236 9.023.145.176.29.357.429.533-5.7042 13.436-14.931 21.714-18.426 21.446-10.373-2.334-13.321-15.051-21.971-19.9z" style="fill:#083381"/>
   <path d="m48.533 13.788c1.697 3.373 2.649 7.181 2.649 11.217 0 13.809-11.196 25.005-25.005 25.005s-25.01-11.196-25.01-25.005c0-2.214.29-4.356.828-6.4 10.15 5.0959 17.93 11.66 24.498 11.796 8.8989.18452 15.499-8.0916 22.04-16.613" style="fill:#0084cd"/>
   <path d="m8.7 24.694c1.516 1.454 1.676 1.837 3.829 3.28 2.147 1.438 2.411 1.563 4.77 2.484 3.287 1.3166 5.4794 1.2389 8.894 1.438-2.5137 1.6326-5.5694 2.5391-8.201 3.285.30271.39032.68661.5347.993.642 2.2651.81676 4.2194.39799 5.619-.145 2.147-.849 2.98-1.718 5.267-2.789 2.8599-1.3786 4.8559-1.9855 7.9-1.987.03647-.89732-.94318-1.1376-1.6893-1.1907-.983-.062-1.6007.03874-2.5837.10074-.88494.09705-1.1791.13247-1.935-.052.497-.046.828-.181 2.033-.792 3.9032-1.7704 7.4371-5.4924 10.141-8.847 1.8848-2.476 3.038-4.0433 4.79-6.325-.755-1.503-1.657-2.918-2.688-4.228-.081.038-.597.179-1.053.408-.548.274-1.283.435-2.157 1.2-4.0341 3.9924-5.1582 9.7475-8.071 13.814-1.071 1.459-2.457 2.97-3.767 3.782-1.314.807-2.54 1.179-4.025 1.024-3.622-.66318-6.2734-2.903-8.785-5.381-2.1423-2.1963-3.5464-4.6885-5.562-7.119-2.0808-2.447-4.3332-4.7125-6.974-6.193l-.035-.034c-1.53 2.275-2.694 4.816-3.413 7.538.011.004 1.132.438 2.28 1.318 1.9635 1.6591 3.2501 3.6364 4.423 4.769z" style="fill:#fff"/>
  </g>
  <g id="Vector_Smart_Object_copy_xA0_Image_1_">
   <path d="m67.924 38.833v-26.405h13.722c1.948 0 3.529 1.58 3.529 3.528v22.877h-5.758v-20.237c0-.498-.39-.887-.866-.887h-4.004c-.476 0-.866.39-.866.887v20.237z" style="fill:#0a4595"/>
   <path d="m125.39 22.103v-3.506c0-.498-.39-.887-.887-.887h-4.069c-.498 0-.909.39-.909.887v3.506c0 .498.411.887.909.887h4.069c.497 0 .887-.389.887-.887m-11.731 16.73v-22.877c0-1.948 1.623-3.528 3.614-3.528h10.453c1.992 0 3.615 1.58 3.615 3.528v22.877h-5.952v-9.675c0-.498-.39-.887-.887-.887h-4.069c-.498 0-.909.39-.909.887v9.675z" style="fill:#0a4595"/>
   <path d="m148.59 22.103v-3.506c0-.498-.411-.887-.909-.887h-4.026c-.498 0-.887.39-.887.887v3.506c0 .498.389.887.887.887h4.026c.498 0 .909-.389.909-.887m-11.645 16.73v-22.877c0-1.948 1.602-3.528 3.571-3.528h10.302c1.992 0 3.593 1.58 3.593 3.528v22.877h-5.823v-9.675c0-.498-.411-.887-.909-.887h-4.026c-.498 0-.887.39-.887.887v9.675z" style="fill:#0a4595"/>
   <path d="m104.92 12.428h-10.022c-1.926 0-3.485 1.58-3.485 3.506v19.328c0 1.926 1.558 3.506 3.484 3.506h10.023c1.926 0 3.485-1.58 3.485-3.506v-19.328c0-1.926-1.559-3.506-3.485-3.506zm-2.188 20.194c0 .476-.389.866-.865.866h-3.918c-.476-.001-.865-.39-.865-.866v-14.047c0-.476.389-.887.865-.887h3.918c.476 0 .865.411.865.887z" style="fill:#0a4595"/>
  </g>
 </g>
</svg>
